<svg width="19" height="12" viewBox="0 0 19 12" fill="none" xmlns="http://www.w3.org/2000/svg">
<path d="M17.7845 7.90073H1.45811C1.32062 7.90073 1.18876 7.95535 1.09154 8.05257C0.994315 8.14979 0.939697 8.28165 0.939697 8.41914C0.939697 8.55663 0.994315 8.68849 1.09154 8.78571C1.18876 8.88293 1.32062 8.93755 1.45811 8.93755H2.21844C2.12245 9.16556 2.08435 9.41378 2.10753 9.66009C2.13072 9.90639 2.21447 10.1431 2.35132 10.3492C2.48817 10.5553 2.67388 10.7244 2.89189 10.8413C3.10991 10.9583 3.35346 11.0194 3.60086 11.0194C3.84826 11.0194 4.09181 10.9583 4.30983 10.8413C4.52784 10.7244 4.71355 10.5553 4.8504 10.3492C4.98725 10.1431 5.071 9.90639 5.09419 9.66009C5.11737 9.41378 5.07927 9.16556 4.98328 8.93755H5.70905C5.62803 9.12288 5.58569 9.32281 5.58464 9.52508C5.61049 9.90618 5.78012 10.2632 6.05922 10.524C6.33831 10.7848 6.70604 10.9299 7.08802 10.9299C7.47 10.9299 7.83773 10.7848 8.11682 10.524C8.39592 10.2632 8.56555 9.90618 8.5914 9.52508C8.59035 9.32281 8.54801 9.12288 8.46699 8.93755H10.824C10.74 9.12191 10.6975 9.32248 10.6996 9.52508C10.6996 9.92288 10.8576 10.3044 11.1389 10.5857C11.4202 10.867 11.8017 11.025 12.1995 11.025C12.5973 11.025 12.9788 10.867 13.2601 10.5857C13.5414 10.3044 13.6995 9.92288 13.6995 9.52508C13.6994 9.32196 13.6545 9.12136 13.5681 8.93755H14.3285C14.2444 9.12191 14.202 9.32248 14.204 9.52508C14.2299 9.90618 14.3995 10.2632 14.6786 10.524C14.9577 10.7848 15.3254 10.9299 15.7074 10.9299C16.0894 10.9299 16.4571 10.7848 16.7362 10.524C17.0153 10.2632 17.1849 9.90618 17.2108 9.52508C17.2107 9.32196 17.1659 9.12136 17.0795 8.93755H17.7707C17.9082 8.93755 18.04 8.88293 18.1373 8.78571C18.2345 8.68849 18.2891 8.55663 18.2891 8.41914C18.2891 8.28165 18.2345 8.14979 18.1373 8.05257C18.04 7.95535 17.9082 7.90073 17.7707 7.90073H17.7845Z" fill="#445166"/>
<path d="M17.1002 0H2.13544C1.83232 0.00182601 1.54225 0.123519 1.32856 0.338503C1.11487 0.553486 0.994933 0.844292 0.994939 1.14741V5.74396C0.992192 5.8958 1.01961 6.04667 1.07561 6.18783C1.13161 6.32899 1.21507 6.45763 1.32116 6.56629C1.42725 6.67495 1.55385 6.76147 1.69363 6.82083C1.83341 6.88019 1.98358 6.91122 2.13544 6.91211H17.1002C17.4027 6.90307 17.6895 6.77558 17.899 6.55709C18.1084 6.3386 18.2237 6.0466 18.2199 5.74396V1.14741C18.2183 0.848357 18.1006 0.561619 17.8917 0.34759C17.6829 0.133562 17.3991 0.00894923 17.1002 0ZM3.40726 5.3085C3.41263 5.33649 3.41174 5.36532 3.40467 5.39294C3.3976 5.42055 3.38451 5.44625 3.36635 5.46822C3.34819 5.49019 3.32541 5.50787 3.29962 5.52002C3.27383 5.53216 3.24568 5.53845 3.21718 5.53845C3.18868 5.53845 3.16053 5.53216 3.13474 5.52002C3.10896 5.50787 3.08617 5.49019 3.06801 5.46822C3.04985 5.44625 3.03677 5.42055 3.0297 5.39294C3.02262 5.36532 3.02174 5.33649 3.0271 5.3085V1.74876C3.02174 1.72077 3.02262 1.69194 3.0297 1.66433C3.03677 1.63672 3.04985 1.61101 3.06801 1.58904C3.08617 1.56707 3.10896 1.54939 3.13474 1.53725C3.16053 1.52511 3.18868 1.51881 3.21718 1.51881C3.24568 1.51881 3.27383 1.52511 3.29962 1.53725C3.32541 1.54939 3.34819 1.56707 3.36635 1.58904C3.38451 1.61101 3.3976 1.63672 3.40467 1.66433C3.41174 1.69194 3.41263 1.72077 3.40726 1.74876V5.3085ZM5.54311 5.3085C5.54847 5.33649 5.54758 5.36532 5.54051 5.39294C5.53344 5.42055 5.52036 5.44625 5.5022 5.46822C5.48404 5.49019 5.46125 5.50787 5.43546 5.52002C5.40968 5.53216 5.38153 5.53845 5.35302 5.53845C5.32452 5.53845 5.29637 5.53216 5.27059 5.52002C5.2448 5.50787 5.22201 5.49019 5.20385 5.46822C5.18569 5.44625 5.17261 5.42055 5.16554 5.39294C5.15847 5.36532 5.15758 5.33649 5.16294 5.3085V1.74876C5.15758 1.72077 5.15847 1.69194 5.16554 1.66433C5.17261 1.63672 5.18569 1.61101 5.20385 1.58904C5.22201 1.56707 5.2448 1.54939 5.27059 1.53725C5.29637 1.52511 5.32452 1.51881 5.35302 1.51881C5.38153 1.51881 5.40968 1.52511 5.43546 1.53725C5.46125 1.54939 5.48404 1.56707 5.5022 1.58904C5.52036 1.61101 5.53344 1.63672 5.54051 1.66433C5.54758 1.69194 5.54847 1.72077 5.54311 1.74876V5.3085ZM7.67895 5.3085C7.67895 5.35983 7.65856 5.40906 7.62226 5.44535C7.58597 5.48165 7.53674 5.50204 7.48541 5.50204C7.43408 5.50204 7.38485 5.48165 7.34856 5.44535C7.31226 5.40906 7.29187 5.35983 7.29187 5.3085V1.74876C7.29187 1.69743 7.31226 1.64821 7.34856 1.61191C7.38485 1.57562 7.43408 1.55522 7.48541 1.55522C7.53674 1.55522 7.58597 1.57562 7.62226 1.61191C7.65856 1.64821 7.67895 1.69743 7.67895 1.74876V5.3085ZM9.80788 5.3085C9.80791 5.35865 9.78847 5.40686 9.75366 5.44297C9.71884 5.47907 9.67137 5.50025 9.62125 5.50204C9.57047 5.50032 9.52224 5.47937 9.48631 5.44344C9.45038 5.40752 9.42944 5.35928 9.42771 5.3085V1.74876C9.42771 1.69743 9.4481 1.64821 9.4844 1.61191C9.52069 1.57562 9.56992 1.55522 9.62125 1.55522C9.64635 1.55521 9.6712 1.56025 9.6943 1.57006C9.71741 1.57987 9.7383 1.59424 9.75572 1.61231C9.77315 1.63038 9.78675 1.65177 9.79571 1.67522C9.80467 1.69867 9.80881 1.72368 9.80788 1.74876V5.3085ZM11.9437 5.3085C11.9491 5.33649 11.9482 5.36532 11.9411 5.39294C11.9341 5.42055 11.921 5.44625 11.9028 5.46822C11.8847 5.49019 11.8619 5.50787 11.8361 5.52002C11.8103 5.53216 11.7821 5.53845 11.7536 5.53845C11.7251 5.53845 11.697 5.53216 11.6712 5.52002C11.6454 5.50787 11.6226 5.49019 11.6045 5.46822C11.5863 5.44625 11.5732 5.42055 11.5662 5.39294C11.5591 5.36532 11.5582 5.33649 11.5636 5.3085V1.74876C11.5582 1.72077 11.5591 1.69194 11.5662 1.66433C11.5732 1.63672 11.5863 1.61101 11.6045 1.58904C11.6226 1.56707 11.6454 1.54939 11.6712 1.53725C11.697 1.52511 11.7251 1.51881 11.7536 1.51881C11.7821 1.51881 11.8103 1.52511 11.8361 1.53725C11.8619 1.54939 11.8847 1.56707 11.9028 1.58904C11.921 1.61101 11.9341 1.63672 11.9411 1.66433C11.9482 1.69194 11.9491 1.72077 11.9437 1.74876V5.3085ZM14.0796 5.3085C14.0778 5.35928 14.0569 5.40752 14.021 5.44344C13.985 5.47937 13.9368 5.50032 13.886 5.50204C13.8359 5.50025 13.7884 5.47907 13.7536 5.44297C13.7188 5.40686 13.6994 5.35865 13.6994 5.3085V1.74876C13.6985 1.72368 13.7026 1.69867 13.7116 1.67522C13.7205 1.65177 13.7341 1.63038 13.7516 1.61231C13.769 1.59424 13.7899 1.57987 13.813 1.57006C13.8361 1.56025 13.8609 1.55521 13.886 1.55522C13.9114 1.55522 13.9366 1.56023 13.9601 1.56996C13.9836 1.57968 14.0049 1.59394 14.0229 1.61191C14.0408 1.62988 14.0551 1.65122 14.0648 1.6747C14.0746 1.69818 14.0796 1.72335 14.0796 1.74876V5.3085ZM16.2154 5.3085C16.2154 5.35983 16.195 5.40906 16.1587 5.44535C16.1224 5.48165 16.0732 5.50204 16.0219 5.50204C15.9705 5.50204 15.9213 5.48165 15.885 5.44535C15.8487 5.40906 15.8283 5.35983 15.8283 5.3085V1.74876C15.8283 1.69743 15.8487 1.64821 15.885 1.61191C15.9213 1.57562 15.9705 1.55522 16.0219 1.55522C16.0732 1.55522 16.1224 1.57562 16.1587 1.61191C16.195 1.64821 16.2154 1.69743 16.2154 1.74876V5.3085Z" fill="#445166"/>
</svg>
