<svg width="19" height="15" viewBox="0 0 19 15" fill="none" xmlns="http://www.w3.org/2000/svg">
<path d="M2.89671 0.5625H4.36267V3.84262H2.89671" fill="#445166"/>
<path d="M16.1711 0.5625H14.7051V3.84262H16.1711V0.5625Z" fill="#445166"/>
<path d="M1.29634 5.78788L0.939941 4.40845H18.2893L17.9329 5.78788H1.29634Z" fill="#445166"/>
<path d="M4.36267 6.29626H2.89671V14.0452H4.36267V6.29626Z" fill="#445166"/>
<path d="M16.1711 6.29626H14.7051V14.0452H16.1711V6.29626Z" fill="#445166"/>
<path d="M6.60188 8.24164V11.7951H12.5128V8.24164H6.60188ZM7.85938 10.8734C7.86451 10.8982 7.86376 10.9238 7.85718 10.9484C7.8506 10.9729 7.83835 10.9958 7.82132 11.0154C7.80429 11.0349 7.78289 11.0507 7.75866 11.0615C7.73443 11.0723 7.70797 11.0779 7.68118 11.0779C7.65439 11.0779 7.62793 11.0723 7.6037 11.0615C7.57947 11.0507 7.55807 11.0349 7.54103 11.0154C7.524 10.9958 7.51175 10.9729 7.50517 10.9484C7.49859 10.9238 7.49784 10.8982 7.50298 10.8734V9.16338C7.49784 9.13852 7.49859 9.1129 7.50517 9.08835C7.51175 9.0638 7.524 9.04093 7.54103 9.02138C7.55807 9.00183 7.57947 8.98609 7.6037 8.97528C7.62793 8.96447 7.65439 8.95887 7.68118 8.95887C7.70797 8.95887 7.73443 8.96447 7.75866 8.97528C7.78289 8.98609 7.80429 9.00183 7.82132 9.02138C7.83835 9.04093 7.8506 9.0638 7.85718 9.08835C7.86376 9.1129 7.86451 9.13852 7.85938 9.16338V10.8734ZM9.13705 10.8734C9.13705 10.9189 9.11792 10.9625 9.08387 10.9947C9.04982 11.0269 9.00364 11.045 8.95548 11.045C8.90733 11.045 8.86115 11.0269 8.8271 10.9947C8.79305 10.9625 8.77392 10.9189 8.77392 10.8734V9.16338C8.77392 9.11786 8.79305 9.0742 8.8271 9.04201C8.86115 9.00983 8.90733 8.99174 8.95548 8.99174C9.00364 8.99174 9.04982 9.00983 9.08387 9.04201C9.11792 9.0742 9.13705 9.11786 9.13705 9.16338V10.8734ZM10.3609 10.8734C10.3661 10.8982 10.3653 10.9238 10.3587 10.9484C10.3521 10.9729 10.3399 10.9958 10.3229 11.0154C10.3058 11.0349 10.2844 11.0507 10.2602 11.0615C10.236 11.0723 10.2095 11.0779 10.1827 11.0779C10.1559 11.0779 10.1295 11.0723 10.1052 11.0615C10.081 11.0507 10.0596 11.0349 10.0426 11.0154C10.0255 10.9958 10.0133 10.9729 10.0067 10.9484C10.0001 10.9238 9.99938 10.8982 10.0045 10.8734V9.16338C9.99938 9.13852 10.0001 9.1129 10.0067 9.08835C10.0133 9.0638 10.0255 9.04093 10.0426 9.02138C10.0596 9.00183 10.081 8.98609 10.1052 8.97528C10.1295 8.96447 10.1559 8.95887 10.1827 8.95887C10.2095 8.95887 10.236 8.96447 10.2602 8.97528C10.2844 8.98609 10.3058 9.00183 10.3229 9.02138C10.3399 9.04093 10.3521 9.0638 10.3587 9.08835C10.3653 9.1129 10.3661 9.13852 10.3609 9.16338V10.8734ZM11.6386 10.8734C11.6437 10.8982 11.643 10.9238 11.6364 10.9484C11.6298 10.9729 11.6176 10.9958 11.6005 11.0154C11.5835 11.0349 11.5621 11.0507 11.5379 11.0615C11.5136 11.0723 11.4872 11.0779 11.4604 11.0779C11.4336 11.0779 11.4071 11.0723 11.3829 11.0615C11.3587 11.0507 11.3373 11.0349 11.3202 11.0154C11.3032 10.9958 11.291 10.9729 11.2844 10.9484C11.2778 10.9238 11.2771 10.8982 11.2822 10.8734V9.16338C11.2771 9.13852 11.2778 9.1129 11.2844 9.08835C11.291 9.0638 11.3032 9.04093 11.3202 9.02138C11.3373 9.00183 11.3587 8.98609 11.3829 8.97528C11.4071 8.96447 11.4336 8.95887 11.4604 8.95887C11.4872 8.95887 11.5136 8.96447 11.5379 8.97528C11.5621 8.98609 11.5835 9.00183 11.6005 9.02138C11.6176 9.04093 11.6298 9.0638 11.6364 9.08835C11.643 9.1129 11.6437 9.13852 11.6386 9.16338V10.8734Z" fill="#445166"/>
<path d="M1.33669 3.84251H0.939941L2.46642 0.683167V1.5032L1.33669 3.84251Z" fill="#445166"/>
<path d="M5.8961 3.84251H6.28613L4.76637 0.683167V1.5032L5.8961 3.84251Z" fill="#445166"/>
<path d="M13.1585 3.84251H12.7685L14.2882 0.683167V1.5032L13.1585 3.84251Z" fill="#445166"/>
<path d="M17.7178 3.84251H18.1078L16.588 0.683167V1.5032" fill="#445166"/>
<path d="M7.13304 6.29626H6.77664V7.87276H7.13304V6.29626Z" fill="#445166"/>
<path d="M12.3046 6.29626H11.9482V7.87276H12.3046V6.29626Z" fill="#445166"/>
</svg>
