<svg width="13" height="13" viewBox="0 0 13 13" fill="none" xmlns="http://www.w3.org/2000/svg">
<path d="M4.78947 10.9276L6.23316 9.56291H2.73684V8.26933H7.52632V8.34694L8.97684 6.97574H2.73684V5.68215H9.57895V6.40656L10.4274 5.61101C10.7558 5.30055 11.1868 5.12591 11.6589 5.12591C11.8847 5.12591 12.1105 5.17119 12.3158 5.2488V1.8014C12.3158 1.08346 11.7 0.507812 10.9474 0.507812H1.36842C0.608947 0.507812 0 1.08346 0 1.8014V10.8565C0 11.5744 0.615789 12.1501 1.36842 12.1501H4.78947V10.9276ZM2.73684 3.09498H9.57895V4.38857H2.73684V3.09498ZM12.7947 7.84891L12.1105 8.4957L10.7079 7.16978L11.3921 6.52299C11.5358 6.38716 11.7753 6.38716 11.9189 6.52299L12.7947 7.35088C12.9384 7.48671 12.9384 7.71308 12.7947 7.84891ZM6.1579 11.4645L10.3042 7.54492L11.7068 8.87084L7.56737 12.7969H6.1579V11.4645Z" fill="#445166"/>
</svg>
