<svg width="42" height="42" viewBox="0 0 42 42" fill="none" xmlns="http://www.w3.org/2000/svg">
<path d="M17.0277 1.37936e-08C20.2018 -0.000127717 23.3127 0.886851 26.0094 2.56084C28.7062 4.23483 30.8813 6.62919 32.2895 9.47372C33.6976 12.3183 34.2827 15.4997 33.9787 18.6591C33.6746 21.8185 32.4936 24.83 30.5688 27.3538L41.3377 38.1269C41.7449 38.5355 41.9813 39.0837 41.9989 39.6603C42.0165 40.2369 41.814 40.7985 41.4325 41.2312C41.051 41.6638 40.5191 41.9351 39.9448 41.9898C39.3706 42.0445 38.797 41.8785 38.3407 41.5257L38.1273 41.3373L27.3538 30.5687C25.2037 32.2082 22.694 33.3121 20.0325 33.789C17.371 34.266 14.6342 34.1023 12.0485 33.3116C9.46285 32.5209 7.10264 31.1258 5.1632 29.2418C3.22377 27.3578 1.76087 25.039 0.895551 22.4774C0.0302354 19.9158 -0.212618 17.185 0.187087 14.5109C0.586792 11.8368 1.61756 9.29627 3.19411 7.09962C4.77065 4.90297 6.84764 3.11331 9.25322 1.87873C11.6588 0.644148 14.3238 0.000142706 17.0277 1.37936e-08ZM17.0277 4.54081C13.7158 4.54081 10.5395 5.85642 8.1976 8.19823C5.85572 10.54 4.54006 13.7162 4.54006 17.028C4.54006 20.3398 5.85572 23.516 8.1976 25.8578C10.5395 28.1996 13.7158 29.5153 17.0277 29.5153C20.3396 29.5153 23.5159 28.1996 25.8578 25.8578C28.1997 23.516 29.5153 20.3398 29.5153 17.028C29.5153 13.7162 28.1997 10.54 25.8578 8.19823C23.5159 5.85642 20.3396 4.54081 17.0277 4.54081Z" fill="#445166"/>
</svg>
