<svg id="Layer_1" data-name="Layer 1" xmlns="http://www.w3.org/2000/svg" viewBox="0 0 85.38 36.33"><defs><style>.cls-1{fill:#3b74b9;}.cls-2{fill:#bdc8e4;}</style></defs><path d="M8.69,3.81A5.21,5.21,0,0,0,4.08,5.56V0H0V13.71H4.08V12.52A4.59,4.59,0,0,0,7.45,14c3.61-.08,4.8-2.52,4.9-4.06S12.37,4.18,8.69,3.81ZM6.05,11a2,2,0,1,1,2-2A2,2,0,0,1,6.05,11Z"/><path d="M21.1,31.64c.5-8-.66-10.74-5.86-10.74-5.74,0-6,4-6,4h2.29c3.7-3.08,5.56.05,5.56.05v1.12c-1.34-.18-6.71-.68-7.6,2.33-1,3.37,5.27,5.06,7.6,1.7v1.56Zm-6.69-1.9c-2.15,0-1.8-2.93,2.12-2.53A2,2,0,0,1,14.41,29.74Z"/><path d="M25.09,13.71c.5-8-.66-10.75-5.86-10.75-5.74,0-6,4-6,4h2.29c3.7-3.09,5.56,0,5.56,0V8.11c-1.34-.18-6.71-.68-7.6,2.34-1,3.36,5.27,5.06,7.6,1.7v1.56ZM18.4,11.8c-2.15,0-1.8-2.92,2.12-2.52A2,2,0,0,1,18.4,11.8Z"/><path d="M63.24,31.64c.5-8-.66-10.74-5.86-10.74-5.74,0-6,4-6,4h2.29c3.7-3.08,5.56.05,5.56.05v1.12c-1.34-.18-6.71-.68-7.6,2.33-1,3.37,5.27,5.06,7.6,1.7v1.56Zm-6.69-1.9c-2.15,0-1.8-2.93,2.12-2.53A2,2,0,0,1,56.55,29.74Z"/><rect x="26.67" width="4.16" height="13.71"/><rect x="41.1" y="4.68" width="4.16" height="9.03"/><rect class="cls-1" x="41" width="4.16" height="3.79"/><rect x="22.13" y="22.88" width="4.16" height="9.03"/><rect x="28.19" y="18.2" width="4.16" height="13.71"/><rect class="cls-2" x="22.13" y="18.2" width="4.16" height="3.79"/><path d="M37.74,10.94V6.86H40V4.09H37.74V0H33.58V4.09H31.31V6.86h2.27V11a2.68,2.68,0,0,0,2.68,2.68h3.93V10.94Z"/><path d="M70,29.14V25.05h2.28V22.28H70V18.2H65.89v4.08H63.61v2.77h2.28v4.18a2.68,2.68,0,0,0,2.68,2.68H72.5V29.14Z"/><path d="M57,8s1.32-4.19-4.65-4.19-5.88,4.47-5.85,5.62.35,4.83,6.08,4.56S57.1,9.91,57.1,9.91H55.32a2.3,2.3,0,0,1-2.47,1.92c-2.24,0-2.74-2.4-2.64-3.36a2.68,2.68,0,0,1,2.87-2.6,2,2,0,0,1,2.24,2.07Z"/><path d="M6.23,21.8a3.66,3.66,0,0,0-2.07,1.45V21.8H0V31.91H4.16V25.25a8.67,8.67,0,0,1,4.15-.07V21.8Z"/><path d="M85.33,28.16H82.75a3.2,3.2,0,0,1-2.69,1.6c-1.84,0-2.45-1.15-2.45-2.91h7.6s1.46-6-5.76-6-6.08,5.42-6.14,6.49c0,.79.57,4.62,6.85,4.52C86.25,31.81,85.33,28.16,85.33,28.16Zm-5.79-4.92c1.71,0,1.93,2.15,1.93,2.15H77.61S77.83,23.24,79.54,23.24Z"/><path d="M46.47,21.8v.78a5.4,5.4,0,0,0-3.19-.92c-3.24,0-5.22,1.8-5.22,4.74,0,2.78,3.57,6.5,8.41,3.58v1.7a2,2,0,0,1-2,2h-.16a1.83,1.83,0,0,1-1.82-1.81H38.16s.05,4.42,3.8,4.42h4.51a4.15,4.15,0,0,0,4.15-4.16V21.8ZM44.57,29c-1.68.14-3-.77-2.52-2.68.32-1.4,1.89-1.61,2.71-1.62a1.1,1.1,0,0,1,.88.42C46.88,26.72,46.11,28.89,44.57,29Z"/></svg>